<?xml version="1.0" encoding="utf-8"?>
<!-- Generator: Adobe Illustrator 28.2.0, SVG Export Plug-In . SVG Version: 6.00 Build 0)  -->
<svg version="1.1" id="Layer_1" xmlns="http://www.w3.org/2000/svg" xmlns:xlink="http://www.w3.org/1999/xlink" x="0px" y="0px"
	 viewBox="0 0 512 512" style="enable-background:new 0 0 512 512;" xml:space="preserve">
<style type="text/css">
	.st0{fill:#2563EB;}
</style>
<g>
	<path class="st0" d="M419.6,481H143.5c-38.9,0-71.6-32.7-71.6-71.6l0,0V102.6c0-38.9,32.7-71.6,71.6-71.6h276.1
		c12.3,0,20.5,8.2,20.5,20.5v409.1C440.1,472.8,431.9,481,419.6,481z M112.8,409.4c0,16.4,14.3,30.7,30.7,30.7h255.7v-61.4H143.5
		C127.1,378.7,112.8,393,112.8,409.4z M143.5,71.9c-16.4,0-30.7,14.3-30.7,30.7V344c10.2-4.1,20.5-6.1,30.7-6.1h255.7V71.9H143.5z"
		/>
	<path class="st0" d="M305.1,211c8.2-10.2,12.3-22.5,12.3-36.8c0-34.8-26.6-61.4-61.4-61.4s-61.4,26.6-61.4,61.4
		c0,14.3,4.1,26.6,12.3,36.8c-20.5,14.3-32.7,38.9-32.7,65.5c0,12.3,8.2,20.5,20.5,20.5s20.5-8.2,20.5-20.5
		c0-22.5,18.4-40.9,40.9-40.9s40.9,18.4,40.9,40.9c0,12.3,8.2,20.5,20.5,20.5s20.5-8.2,20.5-20.5C337.8,249.9,325.5,225.3,305.1,211
		z M235.5,174.2c0-12.3,8.2-20.5,20.5-20.5s20.5,8.2,20.5,20.5s-8.2,20.5-20.5,20.5S235.5,186.5,235.5,174.2z"/>
</g>
</svg>
