<?xml version="1.0" encoding="utf-8"?>
<!-- Generator: Adobe Illustrator 28.2.0, SVG Export Plug-In . SVG Version: 6.00 Build 0)  -->
<svg version="1.1" id="Layer_1" xmlns="http://www.w3.org/2000/svg" xmlns:xlink="http://www.w3.org/1999/xlink" x="0px" y="0px"
	 viewBox="0 0 24 24" style="enable-background:new 0 0 24 24;" xml:space="preserve">
<style type="text/css">
	.st0{fill:#2563EB;}
</style>
<path class="st0" d="M20,23H6.5C4.6,23,3,21.4,3,19.5c0,0,0,0,0,0v-15C3,2.6,4.6,1,6.5,1H20c0.6,0,1,0.4,1,1v20
	C21,22.6,20.6,23,20,23z M5,19.5C5,20.3,5.7,21,6.5,21H19v-3H6.5C5.7,18,5,18.7,5,19.5z M6.5,3C5.7,3,5,3.7,5,4.5v11.8
	C5.5,16.1,6,16,6.5,16H19V3H6.5z"/>
<path class="st0" d="M14.4,9.8C14.8,9.3,15,8.7,15,8c0-1.7-1.3-3-3-3S9,6.3,9,8c0,0.7,0.2,1.3,0.6,1.8C8.6,10.5,8,11.7,8,13
	c0,0.6,0.4,1,1,1s1-0.4,1-1c0-1.1,0.9-2,2-2c1.1,0,2,0.9,2,2c0,0.6,0.4,1,1,1s1-0.4,1-1C16,11.7,15.4,10.5,14.4,9.8z M11,8
	c0-0.6,0.4-1,1-1s1,0.4,1,1s-0.4,1-1,1S11,8.6,11,8z"/>
</svg>
