<?xml version="1.0" standalone="no"?>
<!DOCTYPE svg PUBLIC "-//W3C//DTD SVG 20010904//EN"
 "http://www.w3.org/TR/2001/REC-SVG-20010904/DTD/svg10.dtd">
<svg version="1.0" xmlns="http://www.w3.org/2000/svg"
 width="700.000000pt" height="700.000000pt" viewBox="0 0 700.000000 700.000000"
 preserveAspectRatio="xMidYMid meet">
<metadata>
Created by potrace 1.14, written by Peter Selinger 2001-2017
</metadata>
<g transform="translate(0.000000,700.000000) scale(0.100000,-0.100000)"
fill="#000000" stroke="none">
<path d="M1809 6706 c-2 -2 -31 -7 -63 -11 -129 -14 -315 -90 -431 -174 -238
-173 -375 -394 -431 -691 -4 -19 -8 -1054 -8 -2300 -1 -1762 1 -2285 11 -2357
59 -439 425 -806 868 -871 28 -4 973 -7 2100 -7 1939 0 2052 1 2096 18 49 19
105 65 132 109 45 72 43 -30 41 3093 -1 1628 -4 2971 -8 2985 -17 74 -73 142
-144 177 l-57 28 -2051 2 c-1128 2 -2053 1 -2055 -1z m3731 -723 c0 -79 1
-919 1 -1868 0 -949 -1 -1738 -1 -1753 l0 -28 -1837 0 c-1011 -1 -1874 -4
-1919 -7 -44 -4 -101 -13 -127 -21 -26 -8 -47 -13 -47 -11 0 2 -32 -7 -72 -21
-39 -13 -73 -22 -76 -20 -6 6 -4 3476 3 3505 21 103 90 215 167 272 50 37 116
68 175 83 30 8 592 11 1888 11 l1845 0 0 -142z m2 -4535 c2 -167 2 -364 0
-438 l-3 -135 -1857 1 c-1748 0 -1860 2 -1907 18 -178 63 -298 212 -312 384
-6 80 14 189 40 222 7 8 19 27 26 42 17 34 85 103 133 135 21 14 66 36 100 49
l63 23 1857 0 1857 1 3 -302z"/>
<path d="M3390 5537 c-3 -2 -26 -7 -51 -10 -66 -8 -193 -52 -269 -94 -188
-103 -332 -276 -399 -478 -87 -265 -45 -578 105 -781 l23 -31 -64 -52 c-205
-166 -350 -432 -388 -711 -27 -196 -9 -304 64 -378 104 -106 301 -112 415 -14
51 44 95 155 92 232 -2 38 14 126 32 177 62 177 204 313 387 369 100 31 253
28 350 -6 167 -58 305 -196 363 -363 21 -60 26 -90 34 -195 11 -144 70 -228
188 -269 42 -14 133 -19 175 -9 134 31 213 134 218 282 2 68 -13 208 -30 279
-57 242 -214 490 -397 629 l-38 28 40 57 c145 207 175 538 72 801 -101 257
-314 444 -592 516 -53 14 -320 31 -330 21z m245 -608 c124 -58 184 -212 142
-360 -68 -232 -417 -263 -536 -48 -34 61 -39 197 -10 266 24 57 41 79 91 117
76 57 220 69 313 25z"/>
</g>
</svg>
